<?xml version="1.0" encoding="utf-8"?>
<svg viewBox="0 0 300 400" xmlns="http://www.w3.org/2000/svg">
  <path style="fill: none; stroke: rgb(255, 255, 255);" d="M 154.64 123.83 C 140.69 123.83 125.18 124.126 112.397 130.485 C 102.045 135.635 94.268 144.435 87.661 153.735 C 75.473 170.891 68.336 193.454 73.412 214.432 C 76.076 225.443 82.505 237.864 91.377 245.172 C 95.119 248.254 98.422 251.435 102.281 254.338 C 104.29 255.85 106.788 257.284 108.537 259.121 C 110.91 261.613 114.163 263.615 117.065 265.422 C 121.436 268.142 126.868 269.578 131.754 271.073 C 143.562 274.687 154.892 277.633 167.406 276.787 C 181.092 275.861 196.159 269.738 205.58 259.549 C 211.819 252.8 215.237 245.04 218.775 236.72 C 227.046 217.267 230.081 195.56 222.092 175.488 C 220.491 171.464 220.721 166.781 218.613 163.001 C 218.272 162.387 212.43 153.127 211.59 152.089 C 208.126 147.807 202.773 144.561 198.27 141.475 C 193.532 138.226 189.291 134.711 184.107 132.161 C 181.434 130.846 167.714 128.145 165.571 127.286 C 163.385 126.409 161.117 125.88 158.908 125.116 C 158.141 124.851 155.996 123.782 154.441 123.843 M 155.615 188.83 C 151.599 186.718 145.08 187.793 141.298 190.661 C 130.057 199.186 138.98 211.462 150.447 212.94 C 163.306 214.597 167.037 195.244 155.403 188.723 M 124.506 126.479 C 124.506 133.324 128.3 138.902 131.038 145.009 C 135.527 155.02 139.757 165.301 143.406 175.647 C 144.767 179.507 147.167 183.864 147.167 188.098 M 73.712 185.703 C 86.474 185.703 97.146 189.731 109.334 192.999 C 118.239 195.386 128.073 196.601 136.456 200.27 M 99.609 252.007 C 108.493 244.237 117.255 238.544 126.445 231.11 C 133.815 225.149 140.415 218.303 147.343 212.245 M 175.71 275.474 C 175.707 267.485 171.636 261.02 168.862 253.698 C 164.151 241.266 156.605 225.966 155.668 212.346 M 225.713 212.435 C 210.395 212.435 201.722 209.795 186.585 207.331 C 180.655 206.366 168.63 201.867 162.596 201.867 M 157.915 190.629 C 159.17 184.923 166.992 179.483 170.81 175.233 C 179.898 165.117 188.102 149.506 200.484 143.42 M 96.641 249.357 C 106.337 238.522 120.006 232.349 130.64 222.417 C 133.616 219.638 140.272 213.654 143.236 210.89 M 74.532 181.218 C 88.602 181.218 104.35 186.631 117.289 191.451 C 121.838 193.146 126.232 193.656 130.969 194.255 C 132.571 194.458 135.054 195.104 136.595 195.569 M 128.152 125.376 C 128.152 129.428 130.592 133.008 132.184 136.634 C 134.987 143.018 137.379 149.597 140.174 156.003 C 142.108 160.438 143.387 165.321 144.844 169.933 C 145.392 171.668 146.622 173.374 147.005 175.129 C 147.988 179.631 148.474 183.281 150.327 187.557 M 160.041 192.952 C 160.808 191.173 163.3 189.886 164.594 188.486 C 166.088 186.87 167.255 184.932 168.658 183.232 C 170.246 181.308 171.473 178.975 173.237 177.202 C 176.764 173.658 180.637 170.454 183.945 166.685 C 186.96 163.25 189.734 159.574 192.877 156.256 C 195.705 153.271 200.731 148.179 204.053 145.71 M 161.934 205.509 C 168.398 205.509 175.861 209.228 182.105 210.888 C 191.744 213.449 201.618 213.77 211.428 215.191 C 215.939 215.845 220.382 217.667 224.931 217.667 M 153.046 213.368 C 153.046 229.852 160.877 245.372 166.844 260.302 C 168.303 263.953 170.457 272.379 171.637 276.142 M 108.371 128.16 C 104.824 128.543 101.895 131.883 99.398 134.094 C 92.685 140.041 86.66 145.866 81.548 153.32 C 59.652 185.239 64.265 232.404 95.356 256.666 C 104.581 263.865 109.404 266.391 119.579 271.973 C 123.93 274.36 137.155 278.742 142.172 279.33 C 165.273 282.038 183.676 283.809 203.358 269.052 C 222.06 255.029 228.023 231.796 231.46 209.541 C 232.998 199.584 231.033 188.261 229.442 178.301 C 228.861 174.667 225.087 162.233 223.188 159.225 C 213.405 143.726 216.832 143.882 204.238 135.61 C 200.793 133.348 196.758 132.084 193.311 129.82 C 189.68 127.435 183.467 125.407 179.301 123.918 C 167.339 119.644 155.135 118.837 142.468 118.837 C 135.317 118.837 128.289 118.915 121.425 120.987 C 118.429 121.891 110.482 128.082 107.639 128.259">
    <title>chariot</title>
  </path>
</svg>