<?xml version="1.0" encoding="utf-8"?>
<svg viewBox="0 0 300 400" xmlns="http://www.w3.org/2000/svg">
  <path style="fill: none; stroke: rgb(255, 255, 255);" d="M 116.691 237.434 C 112.402 235.015 105.254 235.326 103.896 235.644 C 97.748 237.084 98.173 243.189 94.908 247.149 C 91.779 250.945 86.799 252.735 84.541 257.298 C 79.884 266.709 88.497 276.996 98.283 277.697 C 107.187 278.335 116.014 276.908 121.539 269.143 C 123.416 266.504 122.487 264.235 123.073 261.274 C 123.844 257.383 126.071 254.335 126.342 250.208 C 126.714 244.516 121.179 239.513 116.096 237.163 M 148.415 117.593 C 144.464 126.769 137.379 134.907 132.514 143.692 C 124.769 157.677 118.539 172.394 111.268 186.634 C 104.777 199.346 99.15 212.219 93.304 225.223 C 88.958 234.891 82.53 245.311 80.938 255.916 C 80.585 258.271 77.39 266.57 81.555 272.455 C 87.187 280.413 98.297 283.949 107.629 281.779 C 115.025 280.059 120.807 276.081 126.684 271.343 C 139.214 261.242 150.222 249.581 159.914 237.007 C 171.33 222.195 183.606 208.024 194.809 193.114 C 203.382 181.703 210.542 168.35 220.564 158.073"/>
</svg>