<?xml version="1.0" encoding="utf-8"?>
<svg viewBox="0 0 300 400" xmlns="http://www.w3.org/2000/svg">
  <path style="fill: none; stroke: rgb(255, 255, 255);" d="M 218.211 271.762 C 215.443 266.337 210.221 262.625 206.72 257.659 C 193.973 239.581 180.245 222.423 166.812 204.846 C 147.155 179.126 129.668 150.349 105.819 128.239 C 105.808 128.228 103.162 130.766 102.866 130.986 C 99.075 133.809 95.4 136.733 92.752 140.736 C 85.02 152.421 79.364 167.079 82.832 181.311 C 83.652 184.675 85.606 192.149 89.287 193.711 C 89.962 193.997 89.14 192.25 89.14 191.517 C 89.14 189.857 88.712 188.072 88.5 186.425 C 87.991 182.472 87.879 176.714 88.578 172.826 C 90.722 160.909 102.452 139.597 117.065 139.597">
    <title>death</title>
  </path>
</svg>