<?xml version="1.0" encoding="utf-8"?>
<svg viewBox="0 0 300 400" xmlns="http://www.w3.org/2000/svg">
  <path style="fill: none; stroke: rgb(255, 255, 255);" d="M 117.157 219.032 C 117.157 209.817 118.475 200.214 124.747 192.98 C 137.905 177.802 165.076 181.597 175.73 197.591 C 179.808 203.714 179.492 213.341 179.492 220.554 M 119.415 202.615 C 114.219 199.59 111.433 190.037 114.197 184.468 C 114.826 183.201 119.113 179.864 119.113 179.568 C 119.113 178.961 119.113 180.783 119.113 181.39 C 119.113 182.765 119.229 183.669 119.73 184.968 C 121.103 188.526 122.253 190.327 125.586 191.95 M 176.002 198.218 C 177.687 196.172 179.347 193.816 179.936 191.187 C 180.159 190.194 179.41 186.759 180.047 186.031 C 180.318 185.721 181.397 186.329 181.599 186.498 C 185.859 190.042 188.405 196.315 185.898 201.657 C 185.066 203.431 183.279 205.162 181.606 206.146 C 181.09 206.449 180.594 206.955 180.052 207.186 C 179.708 207.333 178.661 207.657 179.035 207.657"/>
</svg>