<?xml version="1.0" encoding="utf-8"?>
<svg viewBox="0 0 300 400" xmlns="http://www.w3.org/2000/svg">
  <path style="fill: none; stroke: rgb(255, 255, 255);" d="M 112.691 253.795 C 105.689 241.886 92.543 208.247 94.157 204.868 C 98.315 196.163 110.077 196.539 117.661 196.539 C 140.162 196.539 163.492 195.384 186.062 193.341 C 194.954 192.536 202.543 191.598 205.871 201.993 C 207.444 206.906 191.307 244.631 184.349 254.76 C 180.274 255.204 169.177 254.096 166.783 254.096 C 154.233 254.096 141.694 254.23 129.143 254.23 C 124.483 254.23 116.698 255.603 112.691 253.795 Z M 138.044 196.13 C 138.044 191.481 139.261 186.855 140.073 182.343 C 140.209 181.587 141.024 178.661 140.364 177.968 C 135.214 172.563 129.133 187.821 126.913 179.039 C 126.651 178.003 126.509 176.934 126.36 175.875 C 126.103 174.053 125.81 172.233 125.628 170.402 C 125.397 168.078 125.139 165.503 125.386 163.168 C 126.312 154.414 136.967 166.891 140.496 163.936 C 146.056 159.28 133.405 153.603 136.416 149.453 C 140.349 144.035 149.334 146.447 154.927 145.625 C 156.661 145.37 160.731 144.369 161.797 146.279 C 165.361 152.665 154.668 155.069 156.878 160.321 C 159.119 165.645 165.628 154.16 169.127 157.474 C 170.134 158.428 169.964 161.606 170.019 162.823 C 170.19 166.542 172.251 178.99 169.033 181.59 C 166.14 183.927 155.612 169.016 158.005 179.03 C 158.236 179.998 158.435 180.985 158.798 181.915 C 159.442 183.561 159.938 185.211 160.447 186.914 C 160.981 188.698 162.748 193.216 162.748 195.02"/>
</svg>