<?xml version="1.0" encoding="utf-8"?>
<svg viewBox="0 0 300 400" xmlns="http://www.w3.org/2000/svg">
  <path style="fill: none; stroke: rgb(255, 255, 255);" d="M 103.704 238.415 C 97.367 231.356 77.564 212.392 80.234 195.069 C 80.393 194.037 87.894 195.783 88.595 196.021 C 97.032 198.889 105.958 205.939 114.521 207.605 C 119.825 208.638 126.27 189.871 131.149 191.161 C 137.802 192.92 149.875 206.897 151.621 207.236 C 156.503 208.182 163.628 193.154 168.774 191.813 C 174.42 190.342 178.963 207.245 185.053 205.747 C 193.745 203.608 202.541 198.027 210.753 194.407 C 212.001 193.856 217.812 190.65 219.345 191.887 C 221.605 193.711 217.456 201.881 216.639 203.512 C 211.812 213.155 198.341 229.616 193.52 239.229 C 193.807 239.454 140.113 238.937 127.204 238.911 C 120.11 238.897 110.487 240.7 103.704 238.415 Z M 98.623 201.001 C 119.058 187.158 151.623 158.015 203.135 198.381 M 151.544 160.439 C 140.216 160.439 136.234 175.474 148.664 177.466 C 153.914 178.308 157.482 176.323 159.9 171.2 C 161.571 167.658 155.682 159.948 150.784 160.449"/>
</svg>