<?xml version="1.0" encoding="utf-8"?>
<svg viewBox="0 0 300 400" xmlns="http://www.w3.org/2000/svg">
  <path style="fill: none; stroke: rgb(255, 255, 255);" d="M 148.223 143.453 C 145.847 142.003 129.767 140.077 126.561 143.349 C 122.862 147.124 119.439 147.842 113.437 149.111 C 111.248 149.574 114.886 153.51 116.236 154.847 C 118.221 156.813 124.584 156.171 126.342 156.396 C 135.172 157.526 136.982 152.217 146.616 154.638 C 152.062 156.006 160.72 156.695 165.408 160.896 C 174.633 169.161 167.918 178.892 164.449 181.936 C 157.053 188.425 145.596 194.071 137.076 196.839 C 126.216 200.367 115.762 203.763 105.344 208.515 C 96.437 212.577 88.199 222.936 93.297 233.028 C 97.279 240.911 105.168 244.851 112.924 248.22 C 131.432 256.262 151.108 257.576 171.004 258.173 C 179.179 258.418 187.505 258.636 195.674 258.178 C 198.997 257.992 202.535 257.806 205.798 257.092 C 205.956 257.057 208.792 256.293 208.183 255.695 C 206.928 254.461 201.906 255.009 200.425 255.009 C 193.502 255.009 186.546 255.219 179.627 255.009 C 160.194 254.419 134.654 250.634 118.213 239.751 C 113.838 236.855 110.157 234.724 107.5 229.933 C 102.258 220.482 119.992 212.756 125.096 211.398 C 126.912 210.914 140.424 206.396 144.986 204.439 C 148.012 203.141 156.011 200.247 158.919 198.702 C 164.171 195.913 164.124 197.239 169.125 193.886 C 177.09 188.546 184.234 176.56 182.964 166.77 C 182.611 164.05 180.785 160.594 179.08 158.627 C 176.578 155.744 173.2 154.131 169.999 152.177 C 165.184 149.237 153.087 145.208 147.879 143.31"/>
</svg>