<?xml version="1.0" encoding="utf-8"?>
<svg viewBox="0 0 300 400" xmlns="http://www.w3.org/2000/svg">
  <path style="fill: none; stroke: rgb(255, 255, 255);" d="M 109.69 269.171 C 100.836 262.942 92.614 259.776 92.614 235.505 C 92.614 232.638 92.171 229.365 92.76 226.546 C 94.953 216.036 99.732 205.432 107.864 198.178 C 109.508 196.711 112.544 192.596 114.805 192.242 C 116.238 192.017 113.564 194.962 113.564 196.412 C 113.564 199.093 115.304 200.027 117.546 201.156 C 123.671 204.243 131.969 199.153 134.547 193.586 C 140.42 180.902 129.828 172.97 127.34 161.711 C 124.807 150.247 131.077 141.453 138.701 133.736 C 141.695 130.706 144.676 125.995 148.692 124.276 C 149.474 123.941 148.338 125.942 148.102 126.76 C 147.615 128.444 147.749 130.28 147.749 132.012 C 147.749 137.607 148.805 141.945 152.331 146.616 C 159.418 156.002 169.636 163.264 174.093 174.566 C 178.467 185.655 176.632 196.45 179.361 207.282 C 180.514 211.856 185.483 216.638 190.741 214.127 C 191.772 213.635 197.548 211.729 195.282 201.878 C 193.946 196.071 201.45 215.123 204.041 220.879 C 209.305 232.569 208.874 242.061 201.147 252.877 C 186.95 272.749 153.609 275.761 131.857 275.761 C 123.736 275.761 116.501 273.161 109.489 269.097"/>
</svg>