<?xml version="1.0" encoding="utf-8"?>
<svg viewBox="0 0 300 400" xmlns="http://www.w3.org/2000/svg">
  <path style="fill: none; stroke: rgb(255, 255, 255);" d="M 147.1 129.116 C 143.321 141.397 136.659 152.55 130.378 163.721 C 120.067 182.057 116.577 205.573 108.606 224.8 C 105.424 232.476 102.285 240.984 100.313 248.871 C 99.242 253.158 95.912 257.351 97.234 261.317 C 98.47 265.028 104.705 267.239 107.539 269.365 C 117.061 276.506 136.622 276.699 148.129 276.699 C 159.25 276.699 170.226 275.75 181.062 273.378 C 186.967 272.086 198.318 265.997 202.215 262.1 C 205.424 258.892 198.652 245.441 197.616 242.333 C 195.536 236.092 195.395 229.263 192.997 222.87 C 187.949 209.407 181.407 195.928 175.581 182.739 C 169.023 167.893 166.667 149.956 157.69 136.49 C 155.218 132.782 154.961 126.513 152.115 123.667 C 150.237 121.789 147.558 127.683 147.084 129.189"/>
</svg>