<?xml version="1.0" encoding="utf-8"?>
<svg viewBox="0 0 300 400" xmlns="http://www.w3.org/2000/svg">
  <path style="fill: none; stroke: rgb(255, 255, 255);" d="M 86.639 188.915 C 90.571 181.879 94.396 170.406 99.778 165.024 C 100.978 163.825 116.733 163.044 122.108 162.562 C 125.686 162.242 129.237 160.651 132.88 160.282 C 147.462 158.801 161.841 157.082 176.487 155.342 C 179.874 154.94 193.071 153.393 193.805 153.76 C 195.096 154.406 209.757 169.719 211.613 171.575 C 212.011 171.973 213.627 172.579 213.404 173.246 C 212.605 175.646 209.669 178.331 208.278 180.418 C 205.606 184.425 203.557 188.395 200.391 192.073 C 196.019 197.151 192.094 204.324 188.836 210.16 C 187.48 212.588 171.979 239.17 169.667 242.637 C 169.27 243.233 165.928 246.694 165.056 246.258 C 156.393 241.927 129.453 222.382 122.732 215.661 C 118.531 211.461 86.575 190.047 86.575 188.936 C 91.312 188.52 96.99 187.512 101.583 186.372 C 111.288 183.963 125.266 185.444 134.732 182.289 C 140.364 180.412 155.255 180.454 161.171 179.637 C 175.693 177.63 179.456 177.044 193.963 175.792 C 200.324 175.242 206.914 173.127 212.931 173.127 M 125.36 162.195 C 123.337 167.318 117.76 172.593 116.468 177.763 C 116.253 178.623 114.428 183.915 114.624 184.307 C 116.162 187.383 125.346 195.3 127.979 198.309 C 135.176 206.535 135.534 207.342 141.715 216.368 C 146.308 223.075 152.561 231.824 157.998 238.139 C 158.644 238.89 164.772 246.236 165.327 246.236 M 165.745 156.644 C 167.376 157.576 168.507 159.985 169.895 161.18 C 171.515 162.575 181.359 174.795 180.784 176.52 C 178.997 181.88 175.883 185.804 174.592 192.417 C 172.571 202.774 171.048 213.17 169.814 223.766 C 169.111 229.798 165.584 240.22 165.584 246.231"/>
</svg>