<?xml version="1.0" encoding="utf-8"?>
<svg viewBox="0 0 300 400" xmlns="http://www.w3.org/2000/svg">
  <path style="fill: none; stroke: rgb(255, 255, 255);" d="M 81.933 262.69 C 91.832 247.625 104.117 235.344 113.559 224.195 C 136.026 197.668 155.072 167.096 179.703 142.468 M 174.899 147.091 C 173.861 147.091 172.308 146.977 171.307 146.647 C 170.745 146.462 170.209 146.223 169.692 145.934 C 166.501 144.156 168.037 142.305 170.671 142.319 C 170.865 142.32 173.389 142.868 173.555 143.046 C 174.18 143.717 172.605 140.826 172.493 140.155 C 172.198 138.389 173.359 137.17 175.124 137.324 C 178.09 137.582 177.942 143.062 177.579 144.84 C 186.085 144.836 191.129 146.773 203.186 152.386 C 208.65 154.93 218.229 158.888 218.065 165.889 C 217.463 191.561 194.585 196.666 187.528 187.476 C 180.082 177.779 178.426 169.914 177.236 162.7 C 175.686 153.304 175.368 155.761 175.368 147.023"/>
</svg>