<?xml version="1.0" encoding="utf-8"?>
<svg viewBox="0 0 300 400" xmlns="http://www.w3.org/2000/svg">
  <path style="fill: none; stroke: rgb(52, 49, 49);" d="M 109.422 172.811 C 116.469 170.462 124.199 170.805 131.585 170.805 C 132.94 170.805 139.436 171.341 140.499 170.277 C 141.264 169.512 140.296 166.584 139.66 156.526 C 139.21 149.41 141.003 148.049 141.003 141.067 C 141.003 139.709 139.947 132.784 141.04 132.238 C 142.841 131.337 154.805 130.402 156.113 131.71 C 156.869 132.466 155.295 137.795 155.051 138.91 C 153.569 145.67 154.524 153.89 154.524 160.866 C 154.524 162.659 153.551 169.251 154.919 170.618 C 155.876 171.575 162.133 170.486 163.64 170.486 C 170.206 170.486 176.553 170.918 183.074 170.918 C 184.114 170.918 188.8 170.182 189.273 170.654 C 190.358 171.741 189.295 176.019 189.536 177.466 C 189.625 177.997 190.909 184.742 190.496 185.155 C 189.778 185.873 184.686 185.155 183.777 185.155 C 177.144 185.155 170.716 185.924 164.096 185.924 C 161.999 185.924 156.457 185.201 156.012 186.979 C 154.954 191.213 156.883 196.503 156.883 200.834 C 156.883 210.409 154.038 220.618 155.683 230.424 C 156.678 236.357 157.975 243.752 156.791 249.819 C 156.261 252.537 157.381 266.696 155.868 267.074 C 153.064 267.775 150.105 267.865 146.969 267.865 C 145.557 267.865 142.772 269.841 142.772 268.429 C 142.772 246.926 142.215 224.851 142.215 203.175 C 142.215 201.07 142.531 187.67 141.497 186.636 C 140.34 185.479 135.466 185.881 134.072 186.113 C 128.414 187.056 122.332 185.679 116.733 186.641 C 116.096 186.75 111.475 187.415 111.132 187.073 C 110.265 186.206 109.751 173.676 109.751 172.332"/>
</svg>