<?xml version="1.0" encoding="utf-8"?>
<svg viewBox="0 0 300 400" xmlns="http://www.w3.org/2000/svg">
  <path style="fill: none; stroke: rgb(255, 255, 255);" d="M 125.75 209.927 C 138.133 209.927 142.119 209.14 154.519 209.14 C 158.922 209.14 172.924 209.278 177.056 207.983 C 178.013 207.684 178.117 203.33 183.739 194.996 C 189.97 185.759 203.594 174.923 215.817 177.015 C 218.652 177.501 213.621 182.21 213.312 182.517 C 207.89 187.912 205.303 190.898 202.092 198.134 C 198.977 205.154 199.726 208.481 198.86 216.001 C 198.831 216.249 198.037 232.798 197.589 232.821 C 179.039 233.778 155.727 234.137 136.61 234.137 C 130.532 234.137 113.341 234.545 106.053 234.106 C 105.753 234.088 107.324 223.78 105.689 216.077 C 104.626 211.071 103.926 199.706 99.828 193.38 C 96.506 188.252 93.782 185.692 91.584 183.339 C 89.968 181.608 87.932 181.032 83.865 177.851 C 79.835 174.699 99.307 177.649 104.782 179.322 C 117.985 183.355 126.241 196.523 126.241 210.108 M 156.204 165.69 C 150.14 165.69 145.148 166.107 139.361 167.934 C 127.915 171.547 124.981 185.098 130.427 195.292 C 138.962 211.268 149.461 209.321 160.579 208.809 C 172.612 208.254 179.402 192.145 176.687 181.874 C 173.689 170.534 163.776 165.699 152.935 165.699"/>
</svg>