<?xml version="1.0" encoding="utf-8"?>
<svg viewBox="0 0 300 400" xmlns="http://www.w3.org/2000/svg">
  <path style="fill: none; stroke: rgb(255, 255, 255);" d="M 131.924 206.408 C 131.924 205.604 126.431 199.379 126.289 199.18 C 116.853 186.02 105.27 182.393 89.978 186.02 C 84.36 187.353 78.909 188.969 73.763 191.597 C 72.102 192.445 70.136 193.174 68.744 194.456 C 68.109 195.042 66.464 196.994 66.844 196.218 C 70.068 189.617 76.881 182.656 81.881 177.294 C 93.211 165.145 109.887 150.304 127.078 160.526 C 133.134 164.127 137.815 170.699 142.601 175.728 C 146.695 180.032 149.4 183.462 153.103 187.72 C 156.177 183.332 164.621 177.109 168.756 172.337 C 172.084 168.497 175.719 164.945 179.499 161.555 C 181.991 159.32 184.281 157.043 187.363 155.625 C 208.07 146.094 221.221 177.19 230.936 189.573 C 231.582 190.397 229.543 187.934 228.606 187.467 C 226.678 186.505 224.669 185.703 222.698 184.839 C 216.737 182.227 211.693 179.78 205.077 179.78 C 191.337 179.78 175.17 207.029 171.112 207.029 C 165.173 207.029 172.993 207.048 167.054 207.048 C 165.53 207.048 150.247 207.029 148.723 207.029 C 145.71 207.029 142.698 207.029 139.686 207.029 C 137.278 207.029 134.094 207.676 131.924 206.408 Z M 66.832 196.299 C 56.904 197.767 60.884 209.167 69.989 205.853 C 74.682 204.145 73.651 196.524 67.058 196.524 M 230.303 190.354 C 224.409 194.716 231.625 203.327 236.966 197.609 C 243.805 190.287 231.029 185.123 230.038 191.188 M 134.226 222.359 C 133.733 225.377 128.602 231.132 128.324 233.925 C 128.152 235.649 131.229 238.902 132.208 240.105 C 132.649 240.648 135.598 245.397 136.219 245.489 C 136.905 245.59 136.642 244.161 136.966 243.547 C 137.579 242.385 138.208 241.232 138.846 240.084 C 139.358 239.159 143.09 234.587 142.757 233.456 C 142.121 231.295 138.936 229.012 137.607 227.175 C 136.413 225.526 134.579 222.058 133.841 222.337 M 168.3 222.138 C 168.3 225.048 167.247 227.527 165.58 229.89 C 165.169 230.473 163.074 232.434 163.226 233.352 C 163.608 235.651 164.747 238.118 165.858 240.134 C 166.412 241.138 167.045 242.096 167.648 243.07 C 167.925 243.518 168.203 243.965 168.475 244.416 C 170.467 247.732 169.808 245.874 171.463 242.592 C 172.027 241.473 172.593 240.355 173.16 239.237 C 173.842 237.89 176.304 234.736 176.229 233.159 C 176.184 232.202 174.603 230.938 173.996 230.304 C 172.088 228.312 169.752 224.127 168.086 221.977"/>
</svg>