<?xml version="1.0" encoding="utf-8"?>
<svg viewBox="0 0 300 400" xmlns="http://www.w3.org/2000/svg">
  <path style="fill: none; stroke: rgb(255, 255, 255);" d="M 150.892 127.6 C 157.507 127.6 178.528 128.184 185.143 128.184 C 188.302 128.184 195.808 124.564 194.593 127.48 C 188.129 142.995 173.63 156.15 165.537 171.09 C 164.67 172.69 156.461 184.274 157.758 185.972 C 159.067 187.686 162.007 185.065 164.164 185.065 C 170.72 185.065 177.291 184.902 183.832 185.301 C 184.296 185.329 190.146 184.969 190.293 185.438 C 190.887 187.327 184.711 194.252 183.809 195.835 C 177.809 206.371 170.664 215.803 165.532 226.857 C 160.02 238.729 154.226 250.546 148.875 262.485 C 148.218 263.949 145.449 273.234 144.086 273.61 C 142.018 274.181 143.7 269.337 143.476 267.203 C 142.975 262.447 142.927 257.568 142.927 252.788 C 142.927 241.236 139.58 222.734 143.421 211.866 C 144.352 209.229 137.826 211.866 135.029 211.866 C 127.631 211.866 119.392 211.652 112.094 210.301 C 111.648 210.219 105.243 209.989 105.275 209.736 C 105.885 204.814 114.172 196.967 116.436 192.279 C 124.402 175.788 133.141 159.614 142.135 143.79 C 144.234 140.098 147.269 130.099 151.097 127.534"/>
</svg>