<?xml version="1.0" encoding="utf-8"?>
<svg viewBox="0 0 300 400" xmlns="http://www.w3.org/2000/svg">
  <path style="fill: none; stroke: rgb(255, 255, 255);" d="M 148.036 144.205 C 143.922 144.205 140.193 146.847 136.583 148.578 C 125.712 153.791 115.129 159.364 104.403 164.797 C 103.207 165.403 95.209 168.375 94.998 170.04 C 94.888 170.912 96.757 170.006 97.636 170.04 C 98.882 170.088 100.088 170.374 101.324 170.513 C 107.796 171.24 114.467 170.811 120.967 170.811 C 141.263 170.811 160.967 169.157 181.065 166.555 C 187.307 165.747 194.904 166.882 200.895 165.569 C 201.562 165.423 199.703 164.902 199.1 164.583 C 197.695 163.838 196.34 163.023 194.959 162.237 C 191.428 160.227 187.706 158.7 184.096 156.86 C 173.464 151.44 153.408 143.503 147.64 144.228 M 150.327 236.824 C 150.327 216.462 148.211 196.292 148.211 175.899 C 148.211 167.697 148.211 159.495 148.211 151.294 C 148.211 150.369 147.988 149.219 147.803 144.087 M 150.124 235.791 C 145.901 239.61 132.175 255.033 134.04 255.61 C 136.655 256.418 143.272 255.356 145.894 255.356 C 151.302 255.356 156.62 254.693 162.037 254.693 C 163.327 254.693 167.532 255.331 168.791 254.693 C 169.635 254.265 165.483 249.828 165.299 249.62 C 161.605 245.436 154.866 238.725 150.118 235.789 M 95.353 170.34 C 95.353 178.454 95.498 186.577 95.498 194.692 M 200.675 165.393 C 200.675 174.987 202.025 185.397 202.025 194.96 M 74.727 196.126 C 79.168 195.771 84.528 195.984 88.962 195.47 C 98.099 194.409 108.747 192.052 117.266 193.584 C 117.695 193.661 116.252 195.577 116.224 195.618 C 114.583 198 112.824 200.232 110.717 202.222 C 105.336 207.302 99.744 207.402 92.602 207.512 C 88.097 207.582 84.188 207.049 80.363 204.393 C 79.512 203.802 75.496 200.186 75.147 195.758 M 184.922 195.082 C 190.716 195.082 197.911 195.072 203.699 195.072 C 208.974 195.072 214.248 195.072 219.522 195.072 C 220.841 195.072 223.663 194.332 224.901 194.862 C 226.324 195.471 223.271 197.503 222.296 198.705 C 219.663 201.949 216.623 205.07 212.664 206.642 C 204.087 210.049 184.827 198.291 185.231 194.599">
    <title>justice</title>
  </path>
</svg>