<?xml version="1.0" encoding="utf-8"?>
<svg viewBox="0 0 300 400" xmlns="http://www.w3.org/2000/svg">
  <path style="fill: none; stroke: rgb(255, 255, 255);" d="M 167.399 279.283 C 156.785 279.283 152.772 279.523 142.197 278.524 C 133.841 277.736 130.404 280.346 122.322 277.677 C 105.004 271.957 107.52 235.493 121.806 227.471 C 125.794 225.231 134.838 224.593 136.633 219.387 C 137.294 217.469 136.528 215.22 136.888 213.261 C 137.21 211.509 140.088 209.043 140.749 207.189 C 141.811 204.21 140.009 156.519 141.935 138.826 C 142.355 134.967 142.569 131.063 142.569 127.179 C 142.569 127.113 145.237 120.711 145.536 120.697 C 149.341 120.519 153.754 124.217 154.594 128.996 C 155.2 132.448 162.61 130.799 163.762 135.323 C 164.225 137.143 159.38 139.915 158.346 143.091 C 157.15 146.762 159.712 150.845 159.931 152.581 C 160.458 156.766 165.451 159.559 166.538 163.25 C 167.653 167.04 159.778 172.622 159.662 177.274 C 159.544 182.062 165.294 182.754 165.544 186.644 C 165.697 189.023 162.482 192.763 162.099 195.649 C 161.06 203.489 162.032 212.525 163.388 220.27 C 164.184 224.811 175.359 225.892 178.894 228.237 C 185.049 232.319 187.181 237.683 188.439 245.184 C 189.657 252.443 189.799 261.16 189.799 268.528 C 189.799 270.32 187.19 273.421 186.044 274.949 C 182.85 279.21 172.547 278.929 166.74 279.229 M 167.801 273.078 C 162.302 273.078 156.803 273.078 151.303 273.078 C 148.009 273.078 139.79 272.361 136.523 271.999 C 131.858 271.481 129.241 265.69 129.67 259.672 C 130.021 254.752 138.276 256.347 142.673 256.158 C 151.533 255.778 156.896 256.36 165.753 256.36 C 167.668 256.36 173.583 256.544 174.459 258.777 C 175.431 261.255 173.884 273.413 167.422 273.105"/>
</svg>