<?xml version="1.0" encoding="utf-8"?>
<svg viewBox="0 0 300 400" xmlns="http://www.w3.org/2000/svg">
  <path style="fill: none; stroke: rgb(255, 255, 255);" d="M 125.356 141.285 C 133.961 141.285 139.422 140.362 147.994 139.559 C 152.817 139.107 157.665 139.086 162.514 139.086 C 167.318 139.086 176.103 137.484 180.518 139.902 C 185.082 142.401 180.687 148.639 176.879 149.265 C 173.049 149.894 172.79 145.94 169.832 145.73 C 162.19 145.185 155.577 146.99 147.963 147.357 C 144.889 147.505 135.736 147.315 132.794 148.191 C 127.169 149.867 127.482 149.004 122.141 151.291 C 118.648 152.787 116.621 146.533 117.944 144.021 C 119.42 141.22 122.908 141.256 125.841 141.256 M 143.999 147.653 C 143.999 181.037 139.68 214.268 139.68 247.764 C 139.68 252.599 138.479 257.733 139.034 262.528 C 139.845 269.526 142.094 273.98 145.691 279.867 C 147.244 282.409 153.028 292.378 155.438 294.184 C 156.594 295.051 161.632 285.887 163.022 283.471 C 166.577 277.294 169.861 269.135 171.458 262.245 C 173.386 253.926 167.36 238.464 166.734 229.453 C 165.656 213.934 162.169 198.588 161.136 183.172 C 160.333 171.182 160.562 158.448 158.058 146.653 M 144.942 139.806 C 144.942 135.541 145.808 122.479 144.28 118.397 C 142.999 114.976 139.901 114.132 140.647 108.954 C 141.406 103.69 154.644 105.479 155.869 110.344 C 157.02 114.911 153.66 114.861 153.368 117.926 C 152.78 124.094 154.042 133.408 154.678 139.221 M 152.298 163.845 C 152.298 199.202 156.048 234.468 156.048 269.812"/>
</svg>