<?xml version="1.0" encoding="utf-8"?>
<svg viewBox="0 0 300 400" xmlns="http://www.w3.org/2000/svg">
  <path style="fill: none; stroke: rgb(255, 255, 255);" d="M 122.329 248.805 C 115.462 243.69 107.861 241.51 101.449 236.971 C 82.443 223.517 63.949 204.889 63.949 179.812 C 63.949 168.452 65.121 154.026 76.289 147.949 C 90.735 140.089 105.845 144.076 112.348 159.373 C 113.178 161.326 113.759 170.726 114.104 168.965 C 114.945 164.669 116.392 160.618 118.262 156.671 C 123.495 145.628 131.979 138.768 144.731 140.874 C 161.01 143.561 162.519 162.859 160.101 175.52 C 154.791 203.321 140.33 227.135 121.859 249.044 M 188.24 259.505 C 191.391 257.432 195.143 249.672 195.469 249.187 C 196.283 247.974 200.97 238.16 205.682 231.329 C 217.966 213.52 238.971 185.037 235.711 162.086 C 235.221 158.636 231.657 155.184 229.254 152.964 C 215.928 140.651 191.174 153.843 191.174 172.072 C 191.174 173.285 191.237 169.644 191.174 168.432 C 191.07 166.411 190.416 164.466 189.967 162.506 C 188.518 156.187 185.315 151.817 179.637 148.691 C 166.331 141.365 146.781 144.706 140.61 159.718 C 128.885 188.242 154.834 212.823 168.869 232.584 C 174.677 240.762 182.832 252.417 188.779 259.439"/>
</svg>