<?xml version="1.0" encoding="utf-8"?>
<svg viewBox="0 0 300 400" xmlns="http://www.w3.org/2000/svg">
  <path style="fill: none; stroke: rgb(255, 255, 255);" d="M 182.712 150.024 C 172.527 150.024 162.357 149.606 152.208 148.847 C 142.174 148.097 130.932 147.944 121.391 151.695 C 119.762 152.335 118.049 153.15 116.563 154.077 C 102.391 162.918 123.973 167.114 131.466 167.366 C 148.099 167.925 166.939 169.177 183.194 165.25 C 185.197 164.766 187.657 164.22 189.427 163.112 C 199.921 156.541 186.929 149.995 180.536 149.995 M 111.764 159.432 C 111.764 174.593 111.764 189.755 111.764 204.917 C 111.764 209.737 111.619 214.586 111.826 219.401 C 111.894 220.968 112.164 222.623 112.164 224.174 C 112.164 225.077 112.155 228.715 112.396 230.403 C 112.957 234.331 123.003 234.938 125.996 236.301 C 133.149 239.558 141.58 238.053 149.148 238.427 C 155.722 238.752 162.232 239.486 168.831 239.486 C 174.74 239.486 194.893 237.571 194.851 231.326 C 194.77 219.269 194.954 216.942 194.637 200.632 C 194.473 192.164 193.395 164.88 193.425 158.486 M 111.749 214.877 C 109.054 214.877 106.306 214.993 103.605 215.131 C 94.699 215.587 71.021 228.649 87.559 239.503 C 89.995 241.102 92.593 242.785 95.318 243.846 C 116.958 252.276 158.216 251.838 181.085 251.374 C 193.631 251.119 212.422 248.319 217.669 232.55 C 220.681 223.498 209.274 215.776 200.852 214.245 C 199.009 213.909 196.628 212.935 195.071 213.886"/>
</svg>