<?xml version="1.0" encoding="utf-8"?>
<svg viewBox="0 0 300 400" xmlns="http://www.w3.org/2000/svg">
  <path style="fill: none; stroke: rgb(255, 255, 255);" d="M 132.615 141.672 C 140.51 141.672 146.413 145.776 153.084 149.59 C 179.453 164.664 195.422 200.759 179.591 228.902 C 172.857 240.874 160.884 248.061 148.634 253.184 C 146.04 254.269 139.153 257.436 136.104 258.283 C 132.561 259.267 144.116 244.053 145.518 239.65 C 149.963 225.692 153.93 206.796 151.272 192.071 C 148.954 179.229 138.558 165.717 129.258 156.9 C 126.037 153.847 122.795 150.36 119.307 147.633 C 118.144 146.723 117.014 145.621 115.866 144.659 C 115.295 144.18 113.555 143.065 114.3 143.065 C 119.437 143.065 127.763 141.72 133.02 141.72"/>
</svg>