<?xml version="1.0" encoding="utf-8"?>
<svg viewBox="0 0 300 400" xmlns="http://www.w3.org/2000/svg">
  <path style="fill: none; stroke: rgb(255, 255, 255);" d="M 81.651 203.086 C 82.832 200.045 85.043 198.359 87.453 196.281 C 92.653 191.798 98.901 189.92 105.757 189.92 C 106.971 189.92 108.279 189.776 109.483 189.922 C 110.652 190.064 111.797 190.619 112.896 191.016 C 115.702 192.031 118.024 193.223 120.401 195.003 C 122.704 196.728 125.572 198.182 127.572 200.227 C 127.988 200.653 128.56 200.954 129.075 201.242 C 129.111 201.263 129.629 201.488 129.63 201.528 C 129.646 202.911 128.12 203.201 127.063 203.837 C 124.453 205.409 122.1 207.148 119.323 208.438 C 113.212 211.278 107.283 213.234 100.484 213.234 C 98.818 213.234 96.938 213.483 95.323 213.004 C 93.58 212.488 91.899 211.376 90.364 210.433 C 89.008 209.599 87.8 208.659 86.516 207.726 C 85.999 207.351 81.982 203.194 81.654 202.63 M 171.757 202.463 C 172.106 200.29 173.247 199.256 174.789 197.741 C 176.474 196.085 178.135 194.59 179.988 193.137 C 182.554 191.125 185.179 188.381 188.399 187.425 C 190.741 186.729 193.203 186.733 195.618 186.733 C 197.261 186.733 199.059 186.522 200.685 186.762 C 202.371 187.01 204.269 187.935 205.756 188.73 C 209.419 190.689 212.866 193.211 216.071 195.851 C 216.771 196.428 218.588 197.952 218.323 198.969 C 218.027 200.109 216.156 200.841 215.389 201.551 C 212.086 204.608 208.202 207.612 204.103 209.505 C 199.827 211.479 195.054 211.24 190.565 210.284 C 189.248 210.003 187.894 209.906 186.576 209.628 C 184.324 209.154 182.223 208.206 180.145 207.261 C 178.329 206.435 173.124 203.318 171.691 202.033 M 98.728 190.985 C 98.728 191.965 98.484 192.692 98.155 193.606 C 97.703 194.858 97.291 196.215 97.062 197.528 C 96.791 199.082 96.754 200.618 96.754 202.19 C 96.754 204.943 97.022 207.697 97.946 210.316 C 98.326 211.394 99.01 212.343 99.505 213.353 M 107.552 190.17 C 107.552 192.172 108.446 194.183 108.996 196.092 C 109.557 198.037 110.249 199.972 110.473 201.995 C 110.582 202.983 110.547 203.965 110.579 204.955 C 110.634 206.646 110.831 208.472 110.556 210.15 C 110.471 210.67 110.378 211.189 110.306 211.71 M 189.952 187.511 C 189.952 188.489 190.001 189.485 189.952 190.461 C 189.879 191.938 189.47 193.409 189.28 194.874 C 189.068 196.515 189.069 198.136 189.069 199.786 C 189.069 200.543 189.013 201.324 189.08 202.078 C 189.244 203.92 189.768 205.957 190.483 207.656 C 190.873 208.581 191.404 209.416 191.783 210.336 M 200.256 187.107 C 200.365 188.324 201.162 189.468 201.712 190.53 C 202.217 191.503 202.59 192.526 202.984 193.547 C 203.667 195.317 204.241 197.153 204.65 199.006 C 204.834 199.836 205.073 200.656 205.175 201.502 C 205.32 202.721 205.282 203.948 205.282 205.173 C 205.282 206.588 205.381 208.027 205.05 209.372"/>
</svg>