<?xml version="1.0" encoding="utf-8"?>
<svg viewBox="0 0 300 400" xmlns="http://www.w3.org/2000/svg">
  <path style="fill: none; stroke: rgb(255, 255, 255);" d="M 110.738 238.465 C 110.738 232.038 110.885 226.779 110.738 220.353 C 110.688 218.145 109.964 214.871 110.651 212.7 C 112.048 208.289 115.716 205.163 119.048 202.116 C 120.594 200.703 121.851 199.375 124.027 199.101 C 125.881 198.867 126.429 200.264 127.917 201.152 C 131.267 203.149 136.299 206.089 138.154 209.664 C 139.531 212.32 139.392 215.501 139.824 218.362 C 140.853 225.165 140.093 230.962 140.093 237.874 M 54.646 239.331 C 57.1 236 59.07 231.707 62.228 229.009 C 64.985 226.653 69.119 226.251 71.976 223.924 C 74.31 222.023 75.174 218.756 77.58 217.051 C 80.14 215.238 83.845 216.847 86.275 214.416 C 88.125 212.566 88.88 209.963 90.843 208.162 C 93.369 205.845 96.002 203.279 98.748 201.244 C 101.003 199.572 103.634 198.468 105.754 196.613 C 107.972 194.672 109.222 191.874 111.796 190.217 C 114.357 188.57 117.68 189.37 120.497 188.624 C 123.794 187.751 127.383 186.961 130.593 185.791 C 132.675 185.033 134.645 183.895 136.751 183.145 C 138.202 182.627 139.931 183.035 141.289 182.433 C 141.865 182.178 141.814 181.563 142.598 181.414 C 145.026 180.952 146.329 182.119 148.498 181.923 C 148.71 181.904 149.498 180.267 149.724 180.063 C 151.174 178.755 152.699 177.93 153.866 176.33 C 154.78 175.077 155.665 173.537 156.901 172.581 C 160.579 169.736 165.131 167.786 168.104 164.052 C 169.69 162.059 171.098 159.902 172.787 158.004 C 173.41 157.305 175.285 155.949 175.944 155.29 M 176.891 242.233 C 176.891 233.853 177.035 226.628 176.506 218.289 C 176.06 211.237 175.726 204.2 175.726 197.13 C 175.726 184.719 174.934 171.973 175.868 159.597 C 176.261 154.4 176.026 149.06 176.026 143.839 C 176.026 143.073 175.622 139.998 176.156 139.493 C 176.393 139.269 175.975 138.338 176.158 138.065 C 176.233 137.954 176.872 138.088 176.992 138.05 C 177.249 137.968 177.612 137.291 177.751 137.097 C 178.646 135.843 179.854 133.522 181.299 132.812 C 182.102 132.418 183.447 132.862 184.324 132.705 C 185.401 132.512 186.428 131.964 187.47 131.631 C 189.802 130.884 192.037 129.006 194.075 127.636 C 194.762 127.174 195.607 126.144 196.526 126.387 C 196.729 126.44 196.605 127.893 196.605 128.094 C 196.605 129.942 196.32 131.657 196.32 133.511 C 196.32 136.828 198.646 140.425 199.694 143.576 C 202.65 152.463 201.056 162.145 201.408 171.341 C 201.591 176.142 202.836 180.872 202.984 185.67 C 203.231 193.684 203.3 201.775 203.3 209.789 C 203.3 217.329 203.993 224.813 204.058 232.35 C 204.08 234.952 204.139 238.849 204.139 241.465 M 50.335 239.062 C 58.702 239.062 66.867 240.864 75.288 240.365 C 78.815 240.156 82.106 238.766 85.618 238.501 C 95.067 237.788 104.57 238.564 114.033 238.237 C 116.525 238.151 118.975 237.6 121.464 237.503 C 131.729 237.103 142.028 237.383 152.203 238.718 C 158.934 239.602 165.568 241.233 172.346 241.803 C 181.301 242.556 190.563 241.647 199.548 241.647 C 203.788 241.647 208.019 241.489 212.248 241.489 C 213.547 241.489 216.113 241.972 217.246 241.354"/>
</svg>