<?xml version="1.0" encoding="utf-8"?>
<svg viewBox="0 0 300 400" xmlns="http://www.w3.org/2000/svg">
  <path style="fill: none; stroke: rgb(255, 255, 255);" d="M 134.419 237.148 C 142.933 237.148 151.488 236.898 159.999 237.148 C 162.711 237.227 167.838 238.352 170.071 236.325 C 172.684 233.953 167.677 229.906 169.595 227.127 C 174.583 219.901 185.425 217.86 184.281 199.429 C 183.144 181.102 174.44 163.574 153.349 162.651 C 148.451 162.437 142.936 162.003 138.429 164.262 C 125.327 170.829 114.709 184.11 115.698 199.053 C 117.077 219.888 127.953 219.229 132.672 226.967 C 136.032 232.476 127.24 237.007 134.649 237.152 M 141.382 236.855 C 141.382 234.433 140.271 231.869 140.271 229.447 M 151.64 237.098 C 151.64 234.549 150.885 231.982 150.885 229.433 M 161.137 237.442 C 161.137 234.598 161.86 232.347 161.86 229.503 M 133.297 204.51 C 130.649 204.557 130.16 208.245 130.16 210.341 C 130.16 214.222 134.263 218.894 138.537 218.262 C 140.135 218.025 140.721 215.308 140.945 214.104 C 141.655 210.294 137.914 204.51 133.279 204.51 M 167.443 205.446 C 164.833 205.446 160.508 209.36 161.504 211.982 C 162.425 214.406 165.069 215.215 167.407 215.348 C 173.85 215.715 173.966 205.491 167.415 205.491"/>
</svg>