<?xml version="1.0" encoding="utf-8"?>
<svg viewBox="0 0 300 400" xmlns="http://www.w3.org/2000/svg">
  <path style="fill: none; stroke: rgb(255, 255, 255);" d="M 127.078 257.251 C 127.078 226.802 135.779 197.499 140.571 167.584 C 141.926 159.12 143.309 150.605 145.834 142.402 C 145.986 141.907 146.777 137.752 147.796 137.176 C 148.6 136.722 149.22 138.372 149.791 139.099 C 151.296 141.012 153.02 143.264 154.325 145.226 C 161.456 155.948 166.795 167.766 171.986 179.507 C 180.029 197.699 188.01 215.877 196.449 233.892 C 198.462 238.189 205.55 248.311 205.009 253.938 C 204.866 255.426 202.089 253.218 200.733 252.589 C 198.767 251.678 196.815 250.733 194.901 249.719 C 191.21 247.765 187.535 245.779 183.92 243.688 C 166.346 233.528 149.976 221.839 133.317 210.291 C 125.431 204.824 117.35 199.678 109.335 194.409 C 105.784 192.075 102.244 189.675 98.783 187.208 C 97.388 186.214 93.431 184.88 94.843 183.911 C 97.594 182.025 106.442 182.702 109.715 182.131 C 120.8 180.198 131.687 177.376 142.807 175.613 C 155.379 173.621 167.54 170.893 179.914 167.957 C 186.993 166.278 197.977 159.282 205.327 159.282 C 206.672 159.282 197.244 172.823 195.221 175.407 C 189.593 182.596 181.801 188.684 176.536 196.141 C 167.042 209.587 157.408 223.326 149.031 237.508 C 144.736 244.781 129.712 257.527 122.527 262.902"/>
</svg>