<?xml version="1.0" encoding="utf-8"?>
<svg viewBox="0 0 300 400" xmlns="http://www.w3.org/2000/svg">
  <path style="fill: none; stroke: rgb(255, 255, 255);" d="M 83.67 202.46 C 91.972 198.182 95.738 189.404 103.824 201.171 C 108.718 208.292 111.149 215.617 116.585 222.345 C 120.53 227.227 128.166 234.736 130.051 240.786 C 131.65 245.917 116.144 253.942 111.336 252.97 C 107.659 252.227 103.245 246.116 101.146 243.425 C 94.388 234.765 87.182 225.98 82.373 216.064 C 81.183 213.609 76.738 205.86 83.86 202.272 M 173.286 151.839 C 160.126 158.91 178.11 172.615 182.997 179.836 C 187.978 187.196 192.526 196.922 198.719 203.272 C 199.579 204.153 203.091 203.945 204.036 203.474 C 207.668 201.665 218.286 194.404 219.873 190.627 C 221.213 187.436 216.016 182.308 214.166 180.37 C 207.446 173.329 201.521 165.885 196.092 157.808 C 194.121 154.877 191.234 148.7 187.679 147.431 C 182.248 145.493 177.278 149.896 172.987 151.986 M 114.804 219.653 C 122.279 214.638 129.234 211.123 135.415 206.842 C 145.446 199.896 156 193.487 166.715 187.669 C 171.115 185.279 177.019 181.684 182.373 179.102"/>
</svg>