<?xml version="1.0" encoding="utf-8"?>
<svg viewBox="0 0 300 400" xmlns="http://www.w3.org/2000/svg">
  <path style="fill: none; stroke: rgb(255, 255, 255);" d="M 145.382 180.984 C 120.659 180.984 113.059 215.899 138.711 222.839 C 152.505 226.571 171.129 214.907 166.775 199.14 C 164.12 189.524 154.915 181.807 145.102 181.023 M 118.836 181.888 C 110.053 177.546 105.984 171.619 99.456 164.994 M 113.293 212.66 C 104.749 212.66 98.558 217.726 91.32 221.448 M 137.544 232.353 C 137.544 240.65 138.946 252.355 133.833 259.358 M 171.271 228.04 C 176.111 234.261 182.307 240.559 188.368 245.633 M 180.597 198.507 C 188.321 198.507 201.508 200.867 208.68 197.906 M 171.666 175.598 C 172.325 167.239 183.966 158.683 188.213 151.368 M 141.12 169.134 C 141.12 162.641 142.912 145.849 137.62 140.641"/>
</svg>