<?xml version="1.0" encoding="utf-8"?>
<svg viewBox="0 0 300 400" xmlns="http://www.w3.org/2000/svg">
  <path style="fill: none; stroke: rgb(255, 255, 255);" d="M 178.575 180.239 C 182.38 174.972 187.507 172.487 191.118 167.767 C 191.66 167.058 194.859 164.482 194.578 163.668 C 192.869 158.719 190.874 156.059 187.354 152.538 C 182.223 147.405 171.744 140.863 164.706 138.541 C 139.379 130.186 110.98 145.788 104.604 171.886 C 104.335 172.984 105.789 169.913 106.653 169.184 C 108.586 167.549 110.478 165.908 112.513 164.397 C 117.759 160.501 125.86 157.658 132.329 157.108 C 143.709 156.141 161.617 158.872 169.397 168.065 C 173.208 172.567 175.047 175.86 178.863 180.202 M 195.376 222.501 C 193.759 217.435 186.13 202.947 181.159 200.149 C 178.205 198.486 171.391 202.103 168.972 203.352 C 159.202 208.395 148.83 215.896 142.691 225.219 C 135.712 235.82 136.601 252.525 141.673 263.699 C 141.902 264.204 142.126 256.493 144.42 249.388 C 145.863 244.92 149.168 237.277 150.921 235.483 C 158.233 228 161.827 225.598 168.55 223.648 C 183.757 219.236 186.317 220.117 195.428 222.569"/>
</svg>