<?xml version="1.0" encoding="utf-8"?>
<svg viewBox="0 0 300 400" xmlns="http://www.w3.org/2000/svg">
  <path style="fill: none; stroke: rgb(255, 255, 255);" d="M 144.206 192.114 C 137.666 192.114 133.15 196.531 127.467 199.587 C 122.017 202.518 116.116 204.517 110.605 207.309 C 109.326 207.957 105.832 209.309 105.5 211.005 C 104.993 213.602 115.302 214.933 116.67 215.174 C 126.454 216.896 136.421 218.023 146.286 219.196 C 148.434 219.452 154.331 221.743 156.235 220.986 C 159.973 219.5 163.622 215.658 166.785 213.279 C 171.15 209.996 176.197 207.85 181.052 205.442 C 184.631 203.667 188.577 202.424 192.052 200.497 C 192.395 200.306 193.495 198.281 192.577 197.429 C 189.577 194.642 183.575 195.47 179.745 195.123 C 166.957 193.965 156.774 192.219 143.909 192.219 M 113.777 214.991 C 113.777 229.259 114.392 242.994 117.162 256.997 M 154.354 221.233 C 154.354 230.799 154.063 240.575 155.156 250.092 C 155.763 255.367 157.824 260.513 157.824 265.868 M 191.15 200.884 C 191.15 211.145 192.016 222.222 193.384 232.393 C 193.805 235.527 193.353 239.96 194.518 242.861 M 144.342 192.295 C 144.342 178.577 142.007 166.517 139.934 153.062 C 139.54 150.498 137.069 140.887 138.721 138.583 C 140.288 136.398 146.621 136.935 148.912 136.648 C 157.691 135.547 167.111 134.961 175.956 134.641 C 178.87 134.536 183.859 132.939 185.579 136.01 C 188.44 141.117 188.451 149.771 188.748 155.443 C 189.452 168.874 188.238 184.436 192.317 197.435 M 142.441 168.328 C 154.393 168.328 166.296 169.006 178.231 169.006 C 179.794 169.006 186.972 169.475 188.786 169.476"/>
</svg>