<?xml version="1.0" encoding="utf-8"?>
<svg viewBox="0 0 300 400" xmlns="http://www.w3.org/2000/svg">
  <path style="fill: none; stroke: rgb(255, 255, 255);" d="M 122.534 257.499 C 135.602 257.499 148.872 256.789 161.924 257.503 C 170.119 257.951 186.286 258.94 191.08 258.935 C 191.774 258.934 190.462 255.255 190.307 253.398 C 189.978 249.471 189.698 245.53 189.698 241.587 C 189.698 223.462 188.619 205.253 187.23 187.197 C 187.155 186.227 184.841 167.182 185.532 167.049 C 188.071 166.561 200.335 168.944 201.763 167.078 C 202.459 166.169 201.484 142.654 201.262 142.616 C 197.162 141.922 179.361 140.044 176.257 141.784 C 175.039 142.466 177.446 149.776 176.377 151.19 C 175.95 151.753 161.706 151.947 160.973 151.394 C 159.982 150.647 161.659 144.009 160.478 143.636 C 159.166 143.221 138.134 143.547 136.9 144.803 C 136.143 145.572 137.633 152.686 136.014 152.894 C 134.85 153.044 121.023 154.173 120.999 154.14 C 119.734 152.392 120.764 147.361 118.858 145.781 C 118.101 145.154 99.963 145.199 98.597 146.335 C 97.829 146.973 98.585 153.102 98.585 154.127 C 98.585 156.748 97.598 167.097 98.169 169.413 C 98.205 169.561 119.094 167.708 119.113 169.365 C 119.237 180.472 120.224 186.404 119.93 192.636 C 119.227 207.576 121.14 220.252 121.14 235.158 C 121.14 239.724 122.922 253.663 123.005 257.998"/>
</svg>