<?xml version="1.0" encoding="utf-8"?>
<svg viewBox="0 0 300 400" xmlns="http://www.w3.org/2000/svg">
  <path style="fill: none; stroke: rgb(255, 255, 255);" d="M 123.105 138.974 C 121.092 138.974 117.761 139.736 115.858 138.892 C 109.534 136.091 106.59 127.038 97.977 130.383 C 80.891 137.018 99.751 152.715 106.227 158.726 C 108.269 160.621 110.147 162.694 112.228 164.548 C 142.778 191.769 201.627 245.312 233.845 270.348 M 120.917 220.792 C 137.39 202.755 154.628 185.618 172.326 168.824 C 176.457 164.904 180.242 160.576 184.166 156.45 C 185.077 155.491 186.429 153.039 187.741 152.744 C 188.477 152.579 188.91 153.579 189.541 153.992 C 191.371 155.193 193.16 155.815 195.344 156.061 C 202.964 156.921 211.141 148.729 208.292 140.713 C 207.69 139.016 206.48 137.607 205.384 136.219 C 203.509 133.845 199.13 129.935 195.699 131.791 C 191.99 133.796 187.424 146.279 182.497 138.21"/>
</svg>