<?xml version="1.0" encoding="utf-8"?>
<svg viewBox="0 0 300 400" xmlns="http://www.w3.org/2000/svg">
  <path style="fill: none; stroke: rgb(255, 255, 255);" d="M 79.071 176.13 C 79.071 182.997 78.971 189.866 81.066 196.594 C 92.298 232.667 131.516 236.843 152.023 216.145 C 155.81 212.323 162.42 201.42 152.703 198.217 C 144.416 195.486 153.821 199.368 145.482 195.455 C 128.116 187.306 142.187 176.286 143.446 175.326 C 164.908 158.972 206.782 177.101 217.969 196.734 C 221.435 202.817 220.9 210.714 220.9 217.547 M 148.575 197.541 C 142.664 205.279 125.871 213.63 115.851 179.134 C 110.993 162.41 110.613 147.756 124.256 136.6 C 129.65 132.19 156.921 120.339 168.496 125.502 M 148.615 197.434 C 149.462 195.261 154.12 190.968 158.685 190.912 C 166.295 190.819 173.987 199.881 176.843 206.923 C 187.799 233.931 161.644 275.776 129.142 275.776"/>
</svg>